# xmcd CD database file
#
# Track frame offsets:
#	150
#	30261
#	48551
#	70018
#	93604
#	123901
#	139997
#	149635
#	176824
#	200967
#	242960
#
# Disc length: 3600 seconds
#
# Revision: 0
# Processed by: cddbd v1.5.2PL0 Copyright (c) Steve Scherf et al.
# Submitted via: CDex 2.03
#
DISCID=ad0e0e0b
DTITLE=Steven Wilson - To the Bone
DYEAR=2017
DGENRE=Rock progressif
TTITLE0=To The Bone
TTITLE1=Nowhere Now
TTITLE2=Pariah
TTITLE3=The Same Asylum As Before
TTITLE4=Refuge
TTITLE5=Permanating
TTITLE6=Blank Tapes
TTITLE7=People Who Eat Darkness
TTITLE8=Song Of I
TTITLE9=Detonation
TTITLE10=Song Of Unborn
EXTD=YEAR: 2017
EXTT0=
EXTT1=
EXTT2=
EXTT3=
EXTT4=
EXTT5=
EXTT6=
EXTT7=
EXTT8=
EXTT9=
EXTT10=
PLAYORDER=
